<svg viewBox="0 0 1024 1024" fill="none" xmlns="http://www.w3.org/2000/svg">
  <defs>
    <!-- Background gradient -->
    <linearGradient id="bgGradient" x1="0" y1="0" x2="1024" y2="1024" gradientUnits="userSpaceOnUse">
      <stop offset="0%" stop-color="#818CF8"/>
      <stop offset="50%" stop-color="#6366F1"/>
      <stop offset="100%" stop-color="#4F46E5"/>
    </linearGradient>

    <linearGradient id="skinGradient" x1="512" y1="256" x2="512" y2="820" gradientUnits="userSpaceOnUse">
      <stop offset="0%" stop-color="#F8DACC"/>
      <stop offset="100%" stop-color="#E6C0A8"/>
    </linearGradient>

    <linearGradient id="hairGradient" x1="100" y1="100" x2="924" y2="924" gradientUnits="userSpaceOnUse">
      <stop offset="0%" stop-color="#4F46E5"/>
      <stop offset="60%" stop-color="#4338CA"/>
      <stop offset="100%" stop-color="#312E81"/>
    </linearGradient>

    <linearGradient id="clothesGradient" x1="256" y1="770" x2="768" y2="1024" gradientUnits="userSpaceOnUse">
       <stop offset="0%" stop-color="#EC4899"/>
       <stop offset="100%" stop-color="#BE185D"/>
    </linearGradient>
  </defs>

  <!-- Background -->
  <rect width="1024" height="1024" fill="url(#bgGradient)"/>

  <!-- Scale and position the avatar (5.12x scale, centered) -->
  <g transform="translate(512, 512) scale(4.5) translate(-100, -100)">

    <!-- Background Hair (Heart Shape Silhouette) -->
    <path
      d="M100 190 C 60 170 10 130 10 80 C 10 35 45 15 80 25 C 92 28 100 40 100 40 C 100 40 108 28 120 25 C 155 15 190 35 190 80 C 190 130 140 170 100 190 Z"
      fill="url(#hairGradient)"
    />

    <!-- Neck -->
    <path d="M85 140 V 160 H 115 V 140" fill="#E6C0A8" />
    <ellipse cx="100" cy="160" rx="15" ry="5" fill="#D4A88E" />

    <!-- Shoulders / Clothing -->
    <path d="M50 200 C 50 175 70 160 100 160 C 130 160 150 175 150 200" fill="url(#clothesGradient)" />
    <path d="M100 160 L 90 175 H 110 L 100 160" fill="white" opacity="0.3" />

    <!-- Face -->
    <rect x="55" y="45" width="90" height="105" rx="40" ry="45" fill="url(#skinGradient)" />

    <!-- Hair Bangs -->
    <path d="M55 60 C 40 100 45 130 55 130 C 50 100 50 50 100 45 C 70 45 55 50 55 60" fill="url(#hairGradient)" />
    <path d="M145 60 C 160 100 155 130 145 130 C 150 100 150 50 100 45 C 130 45 145 50 145 60" fill="url(#hairGradient)" />

    <!-- Facial Features -->
    <g transform="translate(0, 5)">
        <!-- Eyebrows -->
        <path d="M70 85 Q 80 80 90 85" stroke="#885A43" stroke-width="3" stroke-linecap="round" fill="none" />
        <path d="M110 85 Q 120 80 130 85" stroke="#885A43" stroke-width="3" stroke-linecap="round" fill="none" />

        <!-- Eyes (happy - curved) -->
        <g fill="#1E293B">
            <path d="M72 100 Q 80 92 88 100" stroke="#1E293B" stroke-width="3.5" stroke-linecap="round" fill="none" />
            <path d="M112 100 Q 120 92 128 100" stroke="#1E293B" stroke-width="3.5" stroke-linecap="round" fill="none" />
        </g>

        <!-- Blush -->
        <ellipse cx="70" cy="115" rx="8" ry="5" fill="#EC4899" opacity="0.2" />
        <ellipse cx="130" cy="115" rx="8" ry="5" fill="#EC4899" opacity="0.2" />

        <!-- Nose -->
        <path d="M100 105 Q 98 112 102 115" stroke="#D4A88E" stroke-width="2.5" stroke-linecap="round" fill="none" />

        <!-- Mouth (happy - big smile) -->
        <g transform="translate(100, 128)">
            <path d="M-10 -2 Q 0 8 10 -2" stroke="#BE123C" stroke-width="3" stroke-linecap="round" fill="none" />
        </g>
    </g>

    <!-- Headset -->
    <ellipse cx="58" cy="100" rx="10" ry="16" fill="#F1F5F9" stroke="#E2E8F0" stroke-width="1" />
    <path d="M58 84 L 58 50 C 58 40 80 30 100 30" stroke="#F1F5F9" stroke-width="6" stroke-linecap="round" fill="none"/>

    <!-- Mic Boom -->
    <path d="M58 110 Q 50 135 80 140" stroke="#E2E8F0" stroke-width="3" fill="none" stroke-linecap="round" />

    <!-- Mic Tip -->
    <circle cx="80" cy="140" r="5" fill="#1E293B" />
  </g>
</svg>
